<?xml version="1.0" encoding="UTF-8"?>
<svg xmlns="http://www.w3.org/2000/svg" xmlns:xlink="http://www.w3.org/1999/xlink" width="122.09pt" height="96.35pt" viewBox="0 0 122.09 96.35" version="1.1">
<defs>
<clipPath id="clip1">
  <path d="M 56 56 L 93 56 L 93 96.351562 L 56 96.351562 Z M 56 56 "/>
</clipPath>
<clipPath id="clip2">
  <path d="M 98 25 L 122.089844 25 L 122.089844 66 L 98 66 Z M 98 25 "/>
</clipPath>
</defs>
<g id="surface1">
<path style=" stroke:none;fill-rule:nonzero;fill:rgb(89.683533%,30.883789%,22.935486%);fill-opacity:1;" d="M 35.6875 20.46875 L 35.6875 28.40625 L 94.054688 35.179688 L 94.054688 33.421875 L 35.6875 20.46875 "/>
<path style=" stroke:none;fill-rule:nonzero;fill:rgb(95.458984%,40.939331%,9.078979%);fill-opacity:1;" d="M 35.6875 20.46875 L 35.6875 28.40625 L 94.054688 35.179688 L 94.054688 33.421875 L 35.6875 20.46875 "/>
<path style=" stroke:none;fill-rule:nonzero;fill:rgb(89.683533%,30.883789%,22.935486%);fill-opacity:1;" d="M 83.992188 63.074219 L 94.023438 57.460938 L 94.023438 50.121094 L 83.453125 61.910156 L 83.992188 63.074219 "/>
<path style=" stroke:none;fill-rule:nonzero;fill:rgb(95.458984%,40.939331%,9.078979%);fill-opacity:1;" d="M 83.992188 63.074219 L 94.023438 57.460938 L 94.023438 50.121094 L 83.453125 61.910156 L 83.992188 63.074219 "/>
<path style=" stroke:none;fill-rule:nonzero;fill:rgb(89.683533%,30.883789%,22.935486%);fill-opacity:1;" d="M 63.097656 50.460938 L 94.023438 45.699219 L 94.023438 38.953125 L 63.097656 49.242188 L 63.097656 50.460938 "/>
<path style=" stroke:none;fill-rule:nonzero;fill:rgb(95.458984%,40.939331%,9.078979%);fill-opacity:1;" d="M 63.097656 50.460938 L 94.023438 45.699219 L 94.023438 38.953125 L 63.097656 49.242188 L 63.097656 50.460938 "/>
<path style=" stroke:none;fill-rule:nonzero;fill:rgb(95.458984%,40.939331%,9.078979%);fill-opacity:1;" d="M 26.277344 7.542969 L 26.277344 34.839844 L 26.21875 35.71875 L 26.050781 36.542969 L 25.796875 37.308594 L 25.425781 38.074219 L 24.972656 38.753906 L 24.464844 39.433594 L 23.867188 40.027344 L 23.214844 40.566406 L 22.507812 41.078125 L 21.769531 41.503906 L 20.976562 41.871094 L 20.15625 42.210938 L 19.332031 42.4375 L 18.480469 42.636719 L 17.660156 42.75 L 16.808594 42.777344 L 15.988281 42.75 L 15.136719 42.636719 L 14.316406 42.4375 L 13.519531 42.210938 L 12.726562 41.871094 L 11.960938 41.503906 L 11.253906 41.078125 L 10.574219 40.566406 L 9.949219 40.027344 L 9.382812 39.433594 L 8.871094 38.753906 L 8.476562 38.074219 L 8.105469 37.308594 L 7.851562 36.542969 L 7.710938 35.71875 L 7.652344 34.839844 L 7.652344 7.542969 L 0 7.542969 L 0 35.4375 L 0.0859375 36.882812 L 0.367188 38.242188 L 0.792969 39.519531 L 1.359375 40.710938 L 2.070312 41.816406 L 2.917969 42.835938 L 3.855469 43.769531 L 4.902344 44.59375 L 6.039062 45.328125 L 7.257812 45.980469 L 8.503906 46.519531 L 9.835938 46.972656 L 11.195312 47.34375 L 12.558594 47.597656 L 13.945312 47.738281 L 15.335938 47.796875 L 16.78125 47.738281 L 18.226562 47.597656 L 19.644531 47.34375 L 21.03125 46.972656 L 22.363281 46.519531 L 23.667969 45.980469 L 24.886719 45.328125 L 26.050781 44.59375 L 27.128906 43.769531 L 28.0625 42.835938 L 28.914062 41.816406 L 29.652344 40.710938 L 30.21875 39.519531 L 30.644531 38.242188 L 30.925781 36.882812 L 31.011719 35.4375 L 31.011719 7.542969 L 26.277344 7.542969 "/>
<path style=" stroke:none;fill-rule:nonzero;fill:rgb(95.458984%,40.939331%,9.078979%);fill-opacity:1;" d="M 37.191406 36.597656 L 37.191406 75.945312 L 44.816406 75.945312 L 44.816406 58.625 L 61.03125 58.625 L 61.03125 53.636719 L 44.816406 53.636719 L 44.816406 41.558594 L 65.480469 41.558594 L 65.480469 36.597656 L 37.191406 36.597656 "/>
<g clip-path="url(#clip1)" clip-rule="nonzero">
<path style=" stroke:none;fill-rule:nonzero;fill:rgb(95.458984%,40.939331%,9.078979%);fill-opacity:1;" d="M 91.757812 95.332031 L 78.464844 57.121094 L 78.464844 56.839844 L 70.527344 56.839844 L 70.527344 57.121094 L 56.664062 95.332031 L 56.664062 96.238281 L 61.652344 96.238281 L 61.652344 95.925781 L 66.386719 82.71875 L 79.371094 82.71875 L 83.765625 95.925781 L 84.074219 96.238281 L 92.039062 96.238281 Z M 77.585938 77.730469 L 68.144531 77.730469 L 72.878906 64.492188 L 77.585938 77.730469 "/>
</g>
<g clip-path="url(#clip2)" clip-rule="nonzero">
<path style=" stroke:none;fill-rule:nonzero;fill:rgb(95.458984%,40.939331%,9.078979%);fill-opacity:1;" d="M 105.902344 59.785156 L 105.902344 25.742188 L 98.21875 25.742188 L 98.21875 65.085938 L 122.089844 65.085938 L 122.089844 59.785156 L 105.902344 59.785156 "/>
</g>
<path style=" stroke:none;fill-rule:nonzero;fill:rgb(95.458984%,40.939331%,9.078979%);fill-opacity:1;" d="M 17.121094 6.949219 L 14.484375 6.949219 L 14.796875 6.070312 L 15.25 4.3125 L 15.390625 3.433594 L 15.503906 2.527344 L 15.589844 1.648438 L 15.648438 0.769531 L 15.648438 -0.109375 L 21.289062 -0.109375 L 21.261719 0.371094 L 21.203125 0.855469 L 21.089844 1.335938 L 20.917969 1.816406 L 20.75 2.269531 L 20.523438 2.753906 L 20.269531 3.207031 L 19.984375 3.632812 L 19.359375 4.511719 L 18.652344 5.359375 L 17.886719 6.15625 L 17.121094 6.949219 "/>
</g>
</svg>
